HIERARCHY
ROOT Hips
{
    OFFSET 0.000 93.594 0.000
    CHANNELS 6 Xposition Yposition Zposition Yrotation Xrotation Zrotation
    JOINT RightHip
    {
        OFFSET -9.500 -1.594 0.000
        CHANNELS 3 Yrotation Xrotation Zrotation
        JOINT RightKnee
        {
            OFFSET 0.000 -42.000 0.000
            CHANNELS 3 Yrotation Xrotation Zrotation
            JOINT RightAnkle
            {
                OFFSET 0.000 -42.000 0.000
                CHANNELS 3 Yrotation Xrotation Zrotation
                End Site
                {
                    OFFSET 0.000 -8.000 17.500
                }
            }
        }
    }
    JOINT LeftHip
    {
        OFFSET 9.500 -1.594 0.000
        CHANNELS 3 Yrotation Xrotation Zrotation
        JOINT LeftKnee
        {
            OFFSET 0.000 -42.000 0.000
            CHANNELS 3 Yrotation Xrotation Zrotation
            JOINT LeftAnkle
            {
                OFFSET 0.000 -42.000 0.000
                CHANNELS 3 Yrotation Xrotation Zrotation
                End Site
                {
                    OFFSET 0.000 -8.000 17.500
                }
            }
        }
    }
    JOINT Chest
    {
        OFFSET 0.000 14.348 0.000
        CHANNELS 3 Yrotation Xrotation Zrotation
        JOINT Chest2
        {
            OFFSET 0.000 9.746 0.000
            CHANNELS 3 Yrotation Xrotation Zrotation
            JOINT Chest3
            {
                OFFSET 0.000 10.149 0.000
                CHANNELS 3 Yrotation Xrotation Zrotation
                JOINT Chest4
                {
                    OFFSET 0.000 9.746 0.000
                    CHANNELS 3 Yrotation Xrotation Zrotation
                    JOINT Neck
                    {
                        OFFSET 0.000 10.417 0.000
                        CHANNELS 3 Yrotation Xrotation Zrotation
                        JOINT Head
                        {
                            OFFSET 0.000 9.000 0.000
                            CHANNELS 3 Yrotation Xrotation Zrotation
                            End Site
                            {
                                OFFSET 0.000 16.000 0.000
                            }
                        }
                    }
                    JOINT RightCollar
                    {
                        OFFSET -3.200 6.945 0.000
                        CHANNELS 3 Yrotation Xrotation Zrotation
                        JOINT RightShoulder
                        {
                            OFFSET -12.800 0.000 0.000
                            CHANNELS 3 Yrotation Xrotation Zrotation
                            JOINT RightElbow
                            {
OFFSET -0 -27 0.000
						CHANNELS 3 Xrotation Yrotation Zrotation
                                JOINT RightWrist
                                {
OFFSET -0 -26 0.000
						CHANNELS 3 Xrotation Yrotation Zrotation
                                    JOINT RightFinger0
                                    {
OFFSET -0.196 -2.56 3.210
						CHANNELS 3 Xrotation Yrotation Zrotation
                                        JOINT RightFinger01
                                        {
OFFSET -0 -3.788 0.000
						CHANNELS 3 Xrotation Yrotation Zrotation
                                            JOINT RightFinger0Nub
                                            {
OFFSET -0 -2.631 0.000
						CHANNELS 3 Xrotation Yrotation Zrotation
                                                End Site
                                                {
OFFSET 0 -2.256 0
                                                }
                                            }
                                        }
                                    }
                                    JOINT RightFinger1
                                    {
OFFSET -0.523 -3.316 2.035
						CHANNELS 3 Xrotation Yrotation Zrotation
                                        JOINT RightFinger11
                                        {
OFFSET 0.094 -5.366 1.028
						CHANNELS 3 Xrotation Yrotation Zrotation
                                            JOINT RightFinger12
                                            {
OFFSET -0 -3.723 0.000
						CHANNELS 3 Xrotation Yrotation Zrotation
                                                JOINT RightFinger1Nub
                                                {
OFFSET -0 -2.111 0.000
						CHANNELS 3 Xrotation Yrotation Zrotation
                                                    End Site
                                                    {
OFFSET 0 -1.857 0
                                                    }
                                                }
                                            }
                                        }
                                    }
                                    JOINT RightFinger2
                                    {
OFFSET -0.532 -3.479 0.778
						CHANNELS 3 Xrotation Yrotation Zrotation
                                        JOINT RightFinger21
                                        {
OFFSET 0.086 -5.322 0.323
						CHANNELS 3 Xrotation Yrotation Zrotation
                                            JOINT RightFinger22
                                            {
OFFSET -0 -4.062 0.000
						CHANNELS 3 Xrotation Yrotation Zrotation
                                                JOINT RightFinger2Nub
                                                {
OFFSET -0 -2.547 0.000
						CHANNELS 3 Xrotation Yrotation Zrotation
                                                    End Site
                                                    {
OFFSET 0 -2.031 0
                                                    }
                                                }
                                            }
                                        }
                                    }
                                    JOINT RightFinger3
                                    {
OFFSET -0.553 -3.461 -0.133
						CHANNELS 3 Xrotation Yrotation Zrotation
                                        JOINT RightFinger31
                                        {
OFFSET 0.023 -4.767 -0.493
						CHANNELS 3 Xrotation Yrotation Zrotation
                                            JOINT RightFinger32
                                            {
OFFSET -0 -3.541 0.000
						CHANNELS 3 Xrotation Yrotation Zrotation
                                                JOINT RightFinger3Nub
                                                {
OFFSET -0 -2.456 0.000
						CHANNELS 3 Xrotation Yrotation Zrotation
                                                    End Site
                                                    {
OFFSET 0 -1.91 0
                                                    }
                                                }
                                            }
                                        }
                                    }
                                    JOINT RightFinger4
                                    {
OFFSET -0.483 -3.251 -1.236
						CHANNELS 3 Xrotation Yrotation Zrotation
                                        JOINT RightFinger41
                                        {
OFFSET 0.023 -4.259 -1.122
						CHANNELS 3 Xrotation Yrotation Zrotation
                                            JOINT RightFinger42
                                            {
OFFSET -0 -2.835 0.000
						CHANNELS 3 Xrotation Yrotation Zrotation
                                                JOINT RightFinger4Nub
                                                {
OFFSET -0 -1.792 0.000
						CHANNELS 3 Xrotation Yrotation Zrotation
                                                    End Site
                                                    {
OFFSET 0 -1.692 0
                                                    }
                                                }
                                            }
                                        }
                                    }
                                }
                            }
                        }
                    }
                    JOINT LeftCollar
                    {
                        OFFSET 3.200 6.945 0.000
                        CHANNELS 3 Yrotation Xrotation Zrotation
                        JOINT LeftShoulder
                        {
                            OFFSET 12.800 0.000 0.000
                            CHANNELS 3 Yrotation Xrotation Zrotation
                            JOINT LeftElbow
                            {
OFFSET -0 -27 0.000
						CHANNELS 3 Xrotation Yrotation Zrotation
                                JOINT LeftWrist
                                {
OFFSET -0 -26 0.000
						CHANNELS 3 Xrotation Yrotation Zrotation
                                    JOINT LeftFinger0
                                    {
OFFSET -0.196 -2.56 3.210
						CHANNELS 3 Xrotation Yrotation Zrotation
                                        JOINT LeftFinger01
                                        {
OFFSET -0 -3.788 0.000
						CHANNELS 3 Xrotation Yrotation Zrotation
                                            JOINT LeftFinger0Nub
                                            {
OFFSET -0 -2.631 0.000
						CHANNELS 3 Xrotation Yrotation Zrotation
                                                End Site
                                                {
OFFSET 0 -2.256 0
                                                }
                                            }
                                        }
                                    }
                                    JOINT LeftFinger1
                                    {
OFFSET -0.523 -3.316 2.035
						CHANNELS 3 Xrotation Yrotation Zrotation
                                        JOINT LeftFinger11
                                        {
OFFSET 0.094 -5.366 1.028
						CHANNELS 3 Xrotation Yrotation Zrotation
                                            JOINT LeftFinger12
                                            {
OFFSET -0 -3.723 0.000
						CHANNELS 3 Xrotation Yrotation Zrotation
                                                JOINT LeftFinger1Nub
                                                {
OFFSET -0 -2.111 0.000
						CHANNELS 3 Xrotation Yrotation Zrotation
                                                    End Site
                                                    {
OFFSET 0 -1.857 0
                                                    }
                                                }
                                            }
                                        }
                                    }
                                    JOINT LeftFinger2
                                    {
OFFSET -0.532 -3.479 0.778
						CHANNELS 3 Xrotation Yrotation Zrotation
                                        JOINT LeftFinger21
                                        {
OFFSET 0.086 -5.322 0.323
						CHANNELS 3 Xrotation Yrotation Zrotation
                                            JOINT LeftFinger22
                                            {
OFFSET -0 -4.062 0.000
						CHANNELS 3 Xrotation Yrotation Zrotation
                                                JOINT LeftFinger2Nub
                                                {
OFFSET -0 -2.547 0.000
						CHANNELS 3 Xrotation Yrotation Zrotation
                                                    End Site
                                                    {
OFFSET 0 -2.031 0
                                                    }
                                                }
                                            }
                                        }
                                    }
                                    JOINT LeftFinger3
                                    {
OFFSET -0.553 -3.461 -0.133
						CHANNELS 3 Xrotation Yrotation Zrotation
                                        JOINT LeftFinger31
                                        {
OFFSET 0.023 -4.767 -0.493
						CHANNELS 3 Xrotation Yrotation Zrotation
                                            JOINT LeftFinger32
                                            {
OFFSET -0 -3.541 0.000
						CHANNELS 3 Xrotation Yrotation Zrotation
                                                JOINT LeftFinger3Nub
                                                {
OFFSET -0 -2.456 0.000
						CHANNELS 3 Xrotation Yrotation Zrotation
                                                    End Site
                                                    {
OFFSET 0 -1.91 0
                                                    }
                                                }
                                            }
                                        }
                                    }
                                    JOINT LeftFinger4
                                    {
OFFSET -0.483 -3.251 -1.236
						CHANNELS 3 Xrotation Yrotation Zrotation
                                        JOINT LeftFinger41
                                        {
OFFSET 0.023 -4.259 -1.122
						CHANNELS 3 Xrotation Yrotation Zrotation
                                            JOINT LeftFinger42
                                            {
OFFSET -0 -2.835 0.000
						CHANNELS 3 Xrotation Yrotation Zrotation
                                                JOINT LeftFinger4Nub
                                                {
OFFSET -0 -1.792 0.000
						CHANNELS 3 Xrotation Yrotation Zrotation
                                                    End Site
                                                    {
OFFSET 0 -1.692 0
                                                    }
                                                }
                                            }
                                        }
                                    }
                                }
                            }
                        }
                    }
                }
            }
        }
    }
}
MOTION

Frames: 12
Frame Time: 0.017
-180.36 91.48 94.82 83.30 0.56 -1.93 -15.97 -6.81 -9.20 -0.00 23.15 -0.00 -39.04 -6.40 16.36 -15.83 -19.86 12.23 -0.00 27.93 0.00 -1.65 -9.38 -9.66 -11.31 -4.78 5.82 -2.87 -1.03 1.35 -4.76 -1.43 2.26 1.14 2.65 -0.95 -5.34 46.61 -14.37 -6.74 39.82 -21.72 16.81 -5.00 -1.70 -13.08 -5.00 -27.32 -56.08 -8.26 61.60 -19.05 6.19 16.97 -45.06 -0 20.23 20.43 -0 -9.59 7.22 -0 0.00 0 -0 0.00 -15 -0 43.40 0 -0 43.73 0 -0 21.86 0 -0 0.00 0 -0 50.08 0 -0 50.08 0 -0 50.08 0 -0 0.00 15 -0 50.74 0 -0 50.74 0 -0 50.74 0 -0 0.00 25 -0 53.66 0 -0 53.66 0 -0 53.66 -18.64 -6.48 0.69 25.22 -23.49 32.62 -20.93 -17.01 -5.43 -10.10 23.67 19.02 -12.05 0 -43.35 -14.06 0 0.87 30.38 0 0.00 0.00 0 0.00 -15.00 0 -42.69 0.00 0 -53.12 0.00 0 -26.56 0.00 0 0.00 0.00 0 -55.68 0.00 0 -55.68 0.00 0 -55.68 0.00 0 0.00 15.00 0 -69.91 0.00 0 -69.91 0.00 0 -69.91 0.00 0 0.00 25.00 0 -52.37 0.00 0 -52.37 0.00 0 -52.37 
-180.32 91.41 94.77 83.28 0.60 -1.93 -15.92 -6.99 -9.24 0.00 23.46 0.00 -39.04 -6.50 16.51 -15.91 -20.14 12.23 0.00 28.46 0.00 -1.64 -9.67 -9.62 -11.30 -4.81 5.83 -2.86 -1.04 1.35 -4.75 -1.44 2.26 1.14 2.65 -0.95 -5.34 46.61 -14.37 -6.74 39.82 -21.72 16.77 -4.97 -1.73 -13.09 -5.01 -27.26 -56 -8.3 61.65 -19.07 6.24 16.91 -45.07 -0 20.24 20.4 -0 -9.58 7.2 -0 0.00 0 -0 0.00 -15 -0 43.44 0 -0 43.72 0 -0 21.86 0 -0 0.00 0 -0 50.11 0 -0 50.11 0 -0 50.11 0 -0 0.00 15 -0 50.78 0 -0 50.78 0 -0 50.78 0 -0 0.00 25 -0 53.64 0 -0 53.64 0 -0 53.64 -18.69 -6.44 0.63 25.17 -23.51 32.66 -20.94 -16.94 -5.40 -10.10 23.66 19.01 -12.06 0 -43.36 -14.07 0 0.85 30.39 0 0.00 0.00 0 0.00 -15.00 0 -42.66 0.00 0 -53.15 0.00 0 -26.57 0.00 0 0.00 0.00 0 -55.66 0.00 0 -55.66 0.00 0 -55.66 0.00 0 0.00 15.00 0 -69.94 0.00 0 -69.94 0.00 0 -69.94 0.00 0 0.00 25.00 0 -52.37 0.00 0 -52.37 0.00 0 -52.37 
-180.28 91.36 94.73 83.28 0.60 -1.93 -15.88 -7.10 -9.28 -0.00 23.73 0.00 -39.06 -6.58 16.64 -15.93 -20.31 12.22 0.00 28.83 0.00 -1.66 -9.86 -9.58 -11.30 -4.81 5.83 -2.86 -1.04 1.35 -4.75 -1.44 2.26 1.14 2.65 -0.95 -5.34 46.61 -14.37 -6.74 39.82 -21.72 16.77 -4.97 -1.73 -13.09 -5.01 -27.26 -56 -8.3 61.65 -19.07 6.24 16.91 -45.07 -0 20.24 20.4 -0 -9.58 7.2 -0 0.00 0 -0 0.00 -15 -0 43.44 0 -0 43.72 0 -0 21.86 0 -0 0.00 0 -0 50.11 0 -0 50.11 0 -0 50.11 0 -0 0.00 15 -0 50.78 0 -0 50.78 0 -0 50.78 0 -0 0.00 25 -0 53.64 0 -0 53.64 0 -0 53.64 -18.69 -6.44 0.63 25.17 -23.51 32.66 -20.94 -16.94 -5.40 -10.10 23.66 19.01 -12.06 0 -43.36 -14.07 0 0.85 30.39 0 0.00 0.00 0 0.00 -15.00 0 -44.56 0.00 0 -53.38 0.00 0 -26.69 0.00 0 0.00 0.00 0 -57.09 0.00 0 -57.09 0.00 0 -57.09 0.00 0 0.00 15.00 0 -70.73 0.00 0 -70.73 0.00 0 -70.73 0.00 0 0.00 25.00 0 -53.37 0.00 0 -53.37 0.00 0 -53.37 
-180.24 91.33 94.70 83.28 0.60 -1.93 -15.85 -7.18 -9.32 -0.00 23.94 -0.00 -39.08 -6.65 16.75 -15.94 -20.44 12.20 -0.00 29.12 -0.00 -1.67 -10.02 -9.55 -11.30 -4.81 5.83 -2.86 -1.04 1.35 -4.75 -1.44 2.26 1.14 2.65 -0.95 -5.34 46.61 -14.37 -6.74 39.82 -21.72 16.77 -4.97 -1.73 -13.09 -5.01 -27.26 -56 -8.3 61.65 -19.07 6.24 16.91 -45.07 -0 20.24 20.4 -0 -9.58 7.2 -0 0.00 0 -0 0.00 -15 -0 43.44 0 -0 43.72 0 -0 21.86 0 -0 0.00 0 -0 50.11 0 -0 50.11 0 -0 50.11 0 -0 0.00 15 -0 50.78 0 -0 50.78 0 -0 50.78 0 -0 0.00 25 -0 53.64 0 -0 53.64 0 -0 53.64 -18.69 -6.44 0.63 25.17 -23.51 32.66 -20.94 -16.94 -5.40 -10.10 23.66 19.01 -12.06 0 -43.36 -14.07 0 0.85 30.39 0 0.00 0.00 0 0.00 -15.00 0 -44.70 0.00 0 -53.25 0.00 0 -26.63 0.00 0 0.00 0.00 0 -57.11 0.00 0 -57.11 0.00 0 -57.11 0.00 0 0.00 15.00 0 -70.77 0.00 0 -70.77 0.00 0 -70.77 0.00 0 0.00 25.00 0 -53.39 0.00 0 -53.39 0.00 0 -53.39 
-180.15 91.33 94.73 82.95 1.23 -2.42 -15.21 -7.35 -8.60 -0.00 23.47 -0.00 -39.50 -6.59 16.70 -14.81 -21.36 12.84 0.00 29.65 0.00 -2.02 -10.31 -9.65 -10.57 -6.47 6.16 -2.69 -1.43 1.41 -4.50 -2.07 2.37 1.12 2.67 -0.90 -5.34 48.43 -14.15 -7.34 40.28 -21.29 17.21 -3.72 -1.97 -14.11 -4.38 -27.96 -57.4 -7.59 60.26 -19.76 3.37 17.39 -44.15 -0 20.58 22.23 -0 -9.24 8.09 -0 0.00 0 -0 0.00 -15 -0 42.99 0 -0 44.01 0 -0 22.00 0 -0 0.00 0 -0 49.69 0 -0 49.69 0 -0 49.69 0 -0 0.00 15 -0 50.16 0 -0 50.16 0 -0 50.16 0 -0 0.00 25 -0 53.40 0 -0 53.40 0 -0 53.40 -18.65 -4.34 -0.58 26.01 -23.20 31.25 -25.21 -18.58 -8.55 -8.08 23.39 18.25 -11.96 0 -43.06 -13.87 0 1.15 29.51 0 0.00 0.00 0 0.00 -15.00 0 -42.05 0.00 0 -53.15 0.00 0 -26.57 0.00 0 0.00 0.00 0 -55.80 0.00 0 -55.80 0.00 0 -55.80 0.00 0 0.00 15.00 0 -69.56 0.00 0 -69.56 0.00 0 -69.56 0.00 0 0.00 25.00 0 -51.84 0.00 0 -51.84 0.00 0 -51.84 
-180.09 91.31 94.76 83.12 1.25 -2.43 -15.31 -7.34 -8.58 0.00 23.59 0.00 -39.61 -6.67 16.79 -15.00 -21.43 12.89 0.00 29.82 0.00 -2.09 -10.42 -9.65 -10.46 -6.44 6.09 -2.66 -1.42 1.40 -4.45 -2.06 2.34 1.10 2.68 -0.89 -5.29 48.53 -13.95 -7.43 40.16 -21.07 16.97 -3.87 -1.99 -13.99 -4.21 -28.01 -57.34 -7.6 60.41 -19.96 3.46 17.10 -44.15 -0 20.72 22.24 -0 -9.10 8.08 -0 0.00 0 -0 0.00 -15 -0 43.35 0 -0 44.01 0 -0 22.01 0 -0 0.00 0 -0 49.90 0 -0 49.90 0 -0 49.90 0 -0 0.00 15 -0 50.36 0 -0 50.36 0 -0 50.36 0 -0 0.00 25 -0 53.56 0 -0 53.56 0 -0 53.56 -18.82 -4.48 -0.56 26.01 -23.20 31.27 -25.04 -18.8 -8.43 -8.22 23.39 18.36 -11.95 0 -43.06 -13.86 0 1.15 29.50 0 0.00 0.00 0 0.00 -15.00 0 -42.05 0.00 0 -53.12 0.00 0 -26.56 0.00 0 0.00 0.00 0 -55.78 0.00 0 -55.78 0.00 0 -55.78 0.00 0 0.00 15.00 0 -69.54 0.00 0 -69.54 0.00 0 -69.54 0.00 0 0.00 25.00 0 -51.92 0.00 0 -51.92 0.00 0 -51.92 
-180.03 91.29 94.79 83.30 1.25 -2.45 -15.43 -7.30 -8.55 0.00 23.69 0.00 -39.67 -6.74 16.88 -15.07 -21.49 12.92 0.00 29.98 0.00 -2.24 -10.51 -9.62 -10.23 -6.27 5.94 -2.60 -1.39 1.36 -4.35 -2.02 2.29 1.07 2.70 -0.88 -5.18 48.58 -13.61 -7.45 39.95 -20.66 16.55 -4.22 -1.91 -13.91 -4.09 -28.1 -57.34 -7.6 60.61 -19 6.49 17.21 -44.94 -0 20.12 20.65 -0 -9.71 8.01 -0 0.00 0 -0 0.00 -15 -0 43.86 0 -0 43.57 0 -0 21.78 0 -0 0.00 0 -0 50.33 0 -0 50.33 0 -0 50.33 0 -0 0.00 15 -0 50.69 0 -0 50.69 0 -0 50.69 0 -0 0.00 25 -0 54.08 0 -0 54.08 0 -0 54.08 -19.21 -4.73 -0.29 25.94 -23.18 31.26 -24.80 -18.97 -8.19 -8.41 23.39 18.55 -12.05 0 -43.14 -14.06 0 1.08 29.88 0 0.00 0.00 0 0.00 -15.00 0 -42.08 0.00 0 -53.08 0.00 0 -26.54 0.00 0 0.00 0.00 0 -55.95 0.00 0 -55.95 0.00 0 -55.95 0.00 0 0.00 15.00 0 -69.53 0.00 0 -69.53 0.00 0 -69.53 0.00 0 0.00 25.00 0 -52.01 0.00 0 -52.01 0.00 0 -52.01 
-179.98 91.28 94.81 83.46 1.24 -2.48 -15.52 -7.25 -8.53 -0.00 23.74 0.00 -39.77 -6.78 16.95 -15.23 -21.52 12.96 0.00 30.09 0.00 -2.30 -10.58 -9.60 -10.29 -6.24 5.92 -2.61 -1.38 1.36 -4.37 -2.01 2.28 1.07 2.70 -0.88 -5.17 48.58 -13.56 -7.44 39.92 -20.60 16.54 -4.28 -1.91 -13.81 -4.05 -28.21 -57.36 -7.59 60.78 -18.95 6.28 17.23 -44.93 -0 20.16 20.68 -0 -9.66 8 -0 0.00 0 -0 0.00 -15 -0 43.82 0 -0 43.22 0 -0 21.61 0 -0 0.00 0 -0 50.29 0 -0 50.29 0 -0 50.29 0 -0 0.00 15 -0 50.67 0 -0 50.67 0 -0 50.67 0 -0 0.00 25 -0 53.99 0 -0 53.99 0 -0 53.99 -19.16 -4.80 -0.25 25.84 -23.20 31.28 -24.51 -19.14 -7.92 -8.60 23.39 18.73 -12.15 0 -43.22 -14.25 0 1.00 30.27 0 0.00 0.00 0 0.00 -15.00 0 -42.11 0.00 0 -53.07 0.00 0 -26.54 0.00 0 0.00 0.00 0 -56.13 0.00 0 -56.13 0.00 0 -56.13 0.00 0 0.00 15.00 0 -69.56 0.00 0 -69.56 0.00 0 -69.56 0.00 0 0.00 25.00 0 -52.07 0.00 0 -52.07 0.00 0 -52.07 
-179.95 91.27 94.83 83.61 1.23 -2.50 -15.58 -7.18 -8.51 0.00 23.78 0.00 -39.88 -6.81 17.01 -15.33 -21.54 12.98 0.00 30.17 0.00 -2.39 -10.62 -9.58 -10.39 -6.24 5.93 -2.64 -1.38 1.36 -4.41 -2.00 2.28 1.07 2.70 -0.88 -5.17 48.58 -13.56 -7.44 39.92 -20.60 16.58 -4.26 -1.91 -13.71 -4.05 -28.35 -57.42 -7.56 60.95 -18.63 6.19 17.93 -44.97 -0 19.86 20.6 -0 -9.96 7.98 -0 0.00 0 -0 0.00 -15 -0 43.13 0 -0 43.32 0 -0 21.66 0 -0 0.00 0 -0 49.89 0 -0 49.89 0 -0 49.89 0 -0 0.00 15 -0 50.32 0 -0 50.32 0 -0 50.32 0 -0 0.00 25 -0 53.52 0 -0 53.52 0 -0 53.52 -19.04 -4.84 -0.24 25.76 -23.24 31.3 -24.23 -19.34 -7.67 -8.76 23.54 18.50 -12.05 0 -43.14 -14.05 0 1.07 30.31 0 0.00 0.00 0 0.00 -15.00 0 -41.83 0.00 0 -53.06 0.00 0 -26.53 0.00 0 0.00 0.00 0 -56.13 0.00 0 -56.13 0.00 0 -56.13 0.00 0 0.00 15.00 0 -69.38 0.00 0 -69.38 0.00 0 -69.38 0.00 0 0.00 25.00 0 -51.65 0.00 0 -51.65 0.00 0 -51.65 
-179.92 91.26 94.84 83.74 1.20 -2.50 -15.62 -7.12 -8.50 -0.00 23.81 -0.00 -39.97 -6.83 17.05 -15.40 -21.54 12.99 -0.00 30.22 0.00 -2.47 -10.64 -9.55 -10.46 -6.22 5.93 -2.66 -1.37 1.36 -4.44 -1.99 2.28 1.07 2.70 -0.88 -5.17 48.58 -13.56 -7.44 39.92 -20.60 16.64 -4.24 -1.90 -13.66 -4.07 -28.46 -57.47 -7.5 61.09 -18.62 6.17 17.96 -44.97 -0 19.87 20.6 -0 -9.96 7.97 -0 0.00 0 -0 0.00 -15 -0 43.11 0 -0 43.39 0 -0 21.70 0 -0 0.00 0 -0 49.84 0 -0 49.84 0 -0 49.84 0 -0 0.00 15 -0 50.30 0 -0 50.30 0 -0 50.30 0 -0 0.00 25 -0 54.34 0 -0 54.34 0 -0 54.34 -18.99 -4.86 -0.19 25.73 -23.32 31.31 -23.94 -19.55 -7.44 -8.90 23.71 18.26 -11.95 0 -43.06 -13.85 0 1.15 30.29 0 0.00 0.00 0 0.00 -15.00 0 -41.57 0.00 0 -53.05 0.00 0 -26.53 0.00 0 0.00 0.00 0 -56.13 0.00 0 -56.13 0.00 0 -56.13 0.00 0 0.00 15.00 0 -69.24 0.00 0 -69.24 0.00 0 -69.24 0.00 0 0.00 25.00 0 -51.52 0.00 0 -51.52 0.00 0 -51.52 
-179.91 91.26 94.86 83.84 1.14 -2.51 -15.62 -7.04 -8.49 0.00 23.84 0.00 -40.07 -6.84 17.10 -15.48 -21.50 12.98 0.00 30.23 -0.00 -2.48 -10.63 -9.54 -10.49 -6.14 5.90 -2.66 -1.35 1.35 -4.45 -1.96 2.27 1.06 2.70 -0.87 -5.16 48.55 -13.52 -7.43 39.88 -20.56 16.60 -4.33 -1.89 -13.56 -4.06 -28.52 -57.52 -7.45 61.18 -18.61 6.16 17.96 -44.97 -0 19.87 20.6 -0 -9.95 7.95 -0 0.00 0 -0 0.00 -15 -0 43.09 0 -0 43.94 0 -0 21.97 0 -0 0.00 0 -0 49.82 0 -0 49.82 0 -0 49.82 0 -0 0.00 15 -0 50.30 0 -0 50.30 0 -0 50.30 0 -0 0.00 25 -0 54.12 0 -0 54.12 0 -0 54.12 -18.99 -4.95 -0.09 25.67 -23.39 31.34 -23.64 -19.7 -7.20 -9.01 23.72 18.38 -11.76 0 -42.96 -13.48 0 1.25 29.61 0 0.00 0.00 0 0.00 -15.00 0 -41.65 0.00 0 -53.04 0.00 0 -26.52 0.00 0 0.00 0.00 0 -56.18 0.00 0 -56.18 0.00 0 -56.18 0.00 0 0.00 15.00 0 -69.27 0.00 0 -69.27 0.00 0 -69.27 0.00 0 0.00 25.00 0 -51.67 0.00 0 -51.67 0.00 0 -51.67 
-179.91 91.26 94.86 83.90 1.08 -2.52 -15.66 -6.97 -8.50 -0.00 23.85 -0.00 -40.10 -6.84 17.11 -15.44 -21.47 12.97 -0.00 30.25 0.00 -2.60 -10.64 -9.49 -10.51 -6.04 5.88 -2.67 -1.33 1.35 -4.46 -1.92 2.27 1.06 2.70 -0.88 -5.15 48.49 -13.50 -7.42 39.84 -20.53 16.59 -4.43 -1.90 -13.45 -4.05 -28.55 -57.54 -7.4 61.20 -18.63 6.17 17.96 -44.96 -0 19.87 20.61 -0 -9.95 7.92 -0 0.00 0 -0 0.00 -15 -0 43.08 0 -0 43.96 0 -0 21.98 0 -0 0.00 0 -0 49.81 0 -0 49.81 0 -0 49.81 0 -0 0.00 15 -0 50.29 0 -0 50.29 0 -0 50.29 0 -0 0.00 25 -0 54.26 0 -0 54.26 0 -0 54.26 -18.97 -5.04 0.01 25.54 -23.46 31.43 -23.35 -19.73 -7.00 -9.07 23.65 18.48 -11.79 0 -42.93 -13.53 0 1.28 29.63 0 0.00 0.00 0 0.00 -15.00 0 -41.72 0.00 0 -53.03 0.00 0 -26.52 0.00 0 0.00 0.00 0 -56.20 0.00 0 -56.20 0.00 0 -56.20 0.00 0 0.00 15.00 0 -69.33 0.00 0 -69.33 0.00 0 -69.33 0.00 0 0.00 25.00 0 -51.80 0.00 0 -51.80 0.00 0 -51.80 
